# AST/ASF file generated using VICON BodyLanguage
# -----------------------------------------------
:version 1.10
:name VICON
:units
  mass 1.0
  length 0.45
  angle deg
:documentation
   .ast/.asf automatically generated from VICON data using
   VICON BodyBuilder and BodyLanguage model FoxedUp or BRILLIANT.MOD
:root
   order TX TY TZ RX RY RZ
   axis XYZ
   position 0 0 0  
   orientation 0 0 0 
:bonedata
  begin
     id 1 
     name lhipjoint
     direction 0.62366 -0.717238 0.310833 
     length 2.53602 
     axis 0 0 0  XYZ
  end
  begin
     id 2 
     name lfemur
     direction 0.34202 -0.939693 0  
     length 7.40817  
     axis 0 0 20  XYZ
    dof rx ry rz
    limits (-160.0 20.0)
           (-70.0 70.0)
           (-60.0 70.0)
  end
  begin
     id 3 
     name ltibia
     direction 0.34202 -0.939693 0   
     length 7.7045   
     axis 0 0 20   XYZ
    dof rx
    limits (-10.0 170.0)
  end
  begin
     id 4 
     name lfoot
     direction 0.0673888 -0.185149 0.980397   
     length 2.09456   
     axis -90 7.62852e-016 20   XYZ
    dof rx rz
    limits (-45.0 90.0)
           (-70.0 20.0)
  end
  begin
     id 5 
     name ltoes
     direction 1.53575e-011 -4.21994e-011 1   
     length 1.05543   
     axis -90 7.62852e-016 20   XYZ
    dof rx
    limits (-90.0 20.0)
  end
  begin
     id 6 
     name rhipjoint
     direction -0.489018 -0.800347 0.346851   
     length 2.27268  
     axis 0 0 0  XYZ 
  end
  begin
     id 7 
     name rfemur
     direction -0.34202 -0.939693 0   
     length 7.55487   
     axis 0 0 -20   XYZ
    dof rx ry rz
    limits (-160.0 20.0)
           (-70.0 70.0)
           (-70.0 60.0)
  end
  begin
     id 8 
     name rtibia
     direction -0.34202 -0.939693 0   
     length 7.78969   
     axis 0 0 -20   XYZ
    dof rx
    limits (-10.0 170.0)
 end
 begin
     id 9 
     name rfoot
     direction -0.0859318 -0.236096 0.967923   
     length 2.19143  
     axis -90 -7.62852e-016 -20   XYZ
    dof rx rz
    limits (-45.0 90.0)
           (-20.0 70.0)
  end
  begin
     id 10 
     name rtoes
     direction -1.53538e-011 -4.21989e-011 1   
     length 1.09845   
     axis -90 -7.62852e-016 -20   XYZ
    dof rx
    limits (-90.0 20.0)
  end
  begin
     id 11 
     name lowerback
     direction -0.00762546 0.998978 -0.0445553   
     length 1.98161   
     axis 0 0 0   XYZ
    dof rx ry rz
    limits (-20.0 45.0)
           (-30.0 30.0)
           (-30.0 30.0)
  end
  begin
     id 12 
     name upperback
     direction 0.0422361 0.998867 -0.0219156   
     length 1.97558   
     axis 0 0 0   XYZ
    dof rx ry rz
    limits (-20.0 45.0)
           (-30.0 30.0)
           (-30.0 30.0)
  end
  begin
     id 13 
     name thorax
     direction 0.0442465 0.999021 7.47603e-005   
     length 1.97799   
     axis 0 0 0   XYZ
    dof rx ry rz
    limits (-20.0 45.0)
           (-30.0 30.0)
           (-30.0 30.0)
  end
  begin
     id 14 
     name lowerneck
     direction 0.00312169 0.984641 0.174564   
     length 1.78995   
     axis 0 0 0   XYZ
    dof rx ry rz
    limits (-20.0 45.0)
           (-30.0 30.0)
           (-30.0 30.0)
  end
  begin
     id 15 
     name upperneck
     direction -0.0383028 0.985255 -0.166749   
     length 1.83053   
     axis 0 0 0   XYZ
    dof rx ry rz
    limits (-20.0 45.0)
           (-30.0 30.0)
           (-30.0 30.0)
  end
  begin
     id 16
     name head
     direction -0.0129546 0.997059 -0.0755386  
     length 1.84088  
     axis 0 0 0   XYZ
    dof rx ry rz
    limits (-20.0 45.0)
           (-30.0 30.0)
           (-30.0 30.0)
  end
  begin
     id 17 
     name lclavicle
     direction 0.912857 0.370519 -0.171488  
     length 3.51279  
     axis 0 0 0   XYZ
    dof ry rz
    limits (-20.0 10.0)
           (0.0 20.0)
  end
  begin
     id 18 
     name lhumerus
     direction 1 -4.48962e-011 3.64361e-027   
     length 4.95663   
     axis 180 -30 -90   XYZ
    dof rx ry rz
    limits (-60.0 90.0)
           (-90.0 90.0)
           (-90.0 90.0)
  end
  begin
     id 19
     name lradius
     direction 1 -4.48974e-011 5.97202e-027   
     length 3.38177   
     axis 180 -30 -90   XYZ
    dof rx
    limits (-10.0 170.0)
  end
  begin
     id 20
     name lwrist
     direction 1 -4.4896e-011 9.83288e-027   
     length 1.69088   
     axis -9.31221e-015 90 90   XYZ
    dof ry
    limits (-180.0 0.0)
 end
  begin
     id 21 
     name lhand
     direction 1 -4.4902e-011 1.96551e-026   
     length 0.662909   
     axis -1.25475e-014 90 90   XYZ
    dof rx rz
    limits (-90.0 90.0)
           (-45.0 45.0)
  end
  begin
     id 22 
     name lfingers
     direction 1 -4.48971e-011 3.93277e-026   
     length 0.534454   
     axis -2.50945e-014 90 90   XYZ
    dof rx
    limits (0.0 90.0)
  end
  begin
     id 23
     name lthumb
     direction 0.707107 -6.34933e-011 0.707107   
     length 0.767373   
     axis -90 45 -4.80359e-014   XYZ
    dof rx rz
    limits (-45.0 45.0)
           (-45.0 45.0)
  end
  begin
     id 24 
     name rclavicle
     direction -0.900919 0.395364 -0.178976   
     length 3.40627  
     axis 0 0 0   XYZ 
    dof ry rz
    limits (-10.0 20.0)
           (-20.0 0.0)
  end
  begin
     id 25 
     name rhumerus
     direction -1 -4.48969e-011 1.03875e-027  
     length 5.08365   
     axis 180 30 90   XYZ
    dof rx ry rz
    limits (-90.0 60.0)
           (-90.0 90.0)
           (-90.0 90.0)
  end
  begin
     id 26 
     name rradius
     direction -1 -4.48951e-011 5.02733e-027   
     length 3.35984   
     axis 180 30 90   XYZ
    dof rx
    limits (-10.0 170.0)
  end
  begin
     id 27 
     name rwrist
     direction -1 -4.49011e-011 9.82828e-027   
     length 1.67992   
     axis -9.31221e-015 -90 -90   XYZ
    dof ry
    limits (-180.0 0.0)
  end
  begin
     id 28
     name rhand
     direction -1 -4.48894e-011 1.96774e-026   
     length 0.820764   
     axis -1.25475e-014 -90 -90   XYZ
    dof rx rz
    limits (-90.0 90.0)
           (-45.0 45.0)
  end
  begin
     id 29
     name rfingers
     direction -1 -4.49095e-011 3.92833e-026   
     length 0.661721   
     axis -2.50945e-014 -90 -90   XYZ
    dof rx
    limits (0.0 90.0)
  end
  begin
     id 30
     name rthumb
     direction -0.707107 -6.34881e-011 0.707107   
     length 0.950103   
     axis -90 -45 4.80359e-014   XYZ
    dof rx rz
    limits (-45.0 45.0)
           (-45.0 45.0)
  end
:hierarchy
  begin
    root lhipjoint rhipjoint lowerback
    lhipjoint lfemur
    lfemur ltibia
    ltibia lfoot
    lfoot ltoes
    rhipjoint rfemur
    rfemur rtibia
    rtibia rfoot
    rfoot rtoes
    lowerback upperback
    upperback thorax
    thorax lowerneck lclavicle rclavicle
    lowerneck upperneck
    upperneck head
    lclavicle lhumerus
    lhumerus lradius
    lradius lwrist
    lwrist lhand lthumb
    lhand lfingers
    rclavicle rhumerus
    rhumerus rradius
    rradius rwrist
    rwrist rhand rthumb
    rhand rfingers
  end

#!OML:ASF I:\golf\golf\golf 2\Subject 1\2002-09-07\Subject1.ASF
:FULLY-SPECIFIED
:DEGREES
46
root -8.14163 17.583 -0.236232 -114.749 86.856 -130.479
lowerback 4.91017 1.91047 -1.54816
upperback 3.64117 2.627 4.68579
thorax 0.716 1.30502 5.60903
lowerneck -14.7666 -2.1829 1.23053
upperneck 37.0764 -0.1489 -4.87573
head 15.4957 -0.0534063 -2.18265
rclavicle 2.26615e-014 3.49861e-014
rhumerus -3.63262 -0.367757 -100.913
rradius 21.6828
rwrist -39.0018
rhand -14.9585 -7.65357
rfingers 7.12502
rthumb 11.2048 -37.3344
lclavicle 2.26615e-014 3.49861e-014
lhumerus -7.29582 -40.302 109.385
lradius 26.2367
lwrist 46.0588
lhand -16.0279 68.1234
lfingers 7.12502
lthumb -169.827 82.1426
rfemur -31.8531 -2.66136 10.2364
rtibia 33.0997
rfoot -9.87535 -9.3486
rtoes -22.1346
lfemur -33.4549 5.64123 -9.0248
ltibia 33.8327
lfoot -12.6326 -5.4016
ltoes -19.9964
47
root -8.14184 17.5835 -0.238652 -115.073 86.8433 -130.754
lowerback 4.97507 1.91871 -1.51199
upperback 3.63367 2.63945 4.6573
thorax 0.6734 1.31281 5.55514
lowerneck -14.8179 -2.17772 1.31915
upperneck 37.1835 -0.130629 -4.93803
head 15.5608 -0.0385262 -2.22579
rclavicle -4.37326e-014 -8.5875e-014
rhumerus -3.66475 -0.417157 -100.933
rradius 21.7576
rwrist -39.0829
rhand -15.0288 -7.79693
rfingers 7.12502
rthumb 11.137 -37.4814
lclavicle -4.37326e-014 -8.5875e-014
lhumerus -7.41018 -40.4195 109.384
lradius 26.3311
lwrist 46.1124
lhand -16.0519 68.2969
lfingers 7.12502
lthumb -169.85 81.9679
rfemur -31.7846 -2.73906 10.2535
rtibia 33.0754
rfoot -9.84125 -9.29335
rtoes -22.34
lfemur -33.3994 5.576 -9.00992
ltibia 33.823
lfoot -12.6344 -5.39738
ltoes -19.5098
48
root -8.14156 17.5842 -0.239815 -114.134 86.8008 -129.764
lowerback 5.00718 1.92818 -1.44496
upperback 3.64934 2.65556 4.66208
thorax 0.672543 1.32221 5.52034
lowerneck -14.9048 -2.16011 1.32935
upperneck 37.3102 -0.0924041 -4.93628
head 15.6469 -0.0180393 -2.22545
rclavicle 1.59028e-014 -1.98785e-014
rhumerus -3.67109 -0.285392 -100.932
rradius 21.853
rwrist -39.3909
rhand -15.1892 -7.95193
rfingers 7.12502
rthumb 10.9823 -37.6447
lclavicle 1.59028e-014 -1.98785e-014
lhumerus -7.55034 -40.428 109.388
lradius 26.4472
lwrist 46.0537
lhand -16.0268 68.3588
lfingers 7.12502
lthumb -169.826 81.9072
rfemur -31.7114 -2.73217 10.3204
rtibia 33.0322
rfoot -9.82091 -9.23063
rtoes -21.8478
lfemur -33.3358 5.56749 -8.92584
ltibia 33.8272
lfoot -12.663 -5.4225
ltoes -19.1363
49
root -8.1406 17.5851 -0.239521 -112.291 86.7823 -127.88
lowerback 5.03505 1.95922 -1.45928
upperback 3.65979 2.69848 4.71439
thorax 0.660386 1.344 5.58059
lowerneck -14.9744 -2.18287 1.22687
upperneck 37.4109 -0.103527 -4.87856
head 15.7151 -0.0271662 -2.18818
rclavicle 2.78299e-015 3.57812e-014
rhumerus -3.6585 -0.204701 -100.892
rradius 21.8789
rwrist -39.5643
rhand -15.3248 -8.05593
rfingers 7.12502
rthumb 10.8515 -37.7556
lclavicle 2.78299e-015 3.57812e-014
lhumerus -7.59178 -40.2801 109.462
lradius 26.4304
lwrist 45.8868
lhand -15.9854 68.3182
lfingers 7.12502
lthumb -169.786 81.9497
rfemur -31.6552 -2.6533 10.3893
rtibia 32.9739
rfoot -9.783 -9.21041
rtoes -21.652
lfemur -33.2724 5.64995 -8.85137
ltibia 33.8469
lfoot -12.6839 -5.38493
ltoes -19.6857
50
root -8.14065 17.5859 -0.242186 -111.33 86.7792 -126.877
lowerback 5.10016 1.98016 -1.45924
upperback 3.64986 2.7285 4.74841
thorax 0.609111 1.36037 5.61206
lowerneck -14.9849 -2.21024 1.12453
upperneck 37.4769 -0.123959 -4.81964
head 15.7512 -0.0397834 -2.1498
rclavicle 3.57812e-014 -4.05521e-014
rhumerus -3.68212 -0.227708 -100.864
rradius 21.889
rwrist -39.5987
rhand -15.4694 -8.11194
rfingers 7.12502
rthumb 10.712 -37.8188
lclavicle 3.57812e-014 -4.05521e-014
lhumerus -7.59587 -40.1939 109.536
lradius 26.3607
lwrist 45.8292
lhand -15.9865 68.2056
lfingers 7.12502
lthumb -169.787 82.0623
rfemur -31.5923 -2.63631 10.4228
rtibia 32.9147
rfoot -9.76174 -9.19479
rtoes -22.2152
lfemur -33.2227 5.67613 -8.82083
ltibia 33.8664
lfoot -12.7056 -5.32276
ltoes -20.2665
51
root -8.1412 17.5874 -0.245974 -111.399 86.7696 -126.931
lowerback 5.12054 1.97862 -1.40699
upperback 3.6412 2.72833 4.72795
thorax 0.591921 1.36152 5.55968
lowerneck -14.9941 -2.21238 1.10277
upperneck 37.5226 -0.128431 -4.7807
head 15.7766 -0.0379571 -2.13121
rclavicle 4.77083e-014 4.92986e-014
rhumerus -3.71462 -0.208073 -100.895
rradius 21.944
rwrist -39.6997
rhand -15.6259 -8.1804
rfingers 7.12502
rthumb 10.5611 -37.8951
lclavicle 4.77083e-014 4.92986e-014
lhumerus -7.62449 -40.2485 109.534
lradius 26.3497
lwrist 45.8727
lhand -16.0069 68.169
lfingers 7.12502
lthumb -169.807 82.0979
rfemur -31.5408 -2.62371 10.414
rtibia 32.8679
rfoot -9.79437 -9.16962
rtoes -22.3322
lfemur -33.2113 5.61693 -8.80944
ltibia 33.8804
lfoot -12.753 -5.28071
ltoes -20.1068
52
root -8.14102 17.5891 -0.246859 -111.535 86.758 -127.067
lowerback 5.0882 1.95965 -1.44135
upperback 3.6495 2.7014 4.73757
thorax 0.619559 1.34682 5.59234
lowerneck -15.0102 -2.18732 1.06156
upperneck 37.5265 -0.0926663 -4.74258
head 15.7849 -0.0242706 -2.10175
rclavicle -5.1684e-015 1.11319e-014
rhumerus -3.81289 0.213093 -100.894
rradius 22.1563
rwrist -40.0793
rhand -15.8547 -8.33519
rfingers 7.12502
rthumb 10.3404 -38.061
lclavicle -5.1684e-015 1.11319e-014
lhumerus -7.59506 -40.2109 109.514
lradius 26.3447
lwrist 45.856
lhand -16.0457 68.3344
lfingers 7.12502
lthumb -169.844 81.9307
rfemur -31.5109 -2.57499 10.3999
rtibia 32.8379
rfoot -9.90575 -9.19507
rtoes -21.7431
lfemur -33.2046 5.57321 -8.79928
ltibia 33.8853
lfoot -12.8059 -5.22184
ltoes -20.0154
